<svg aria-hidden="true" aria-label="more" color="#f9f9f9" role="img" transform="" version="1.1" viewBox="0 0 36 36" xmlns="http://www.w3.org/2000/svg" class="sc-bRBYWo bFBSwK"><title/><path d="M19.53 28.827h-2.933a1.048 1.048 0 0 1-1.048-1.047v-2.933c0-.579.47-1.048 1.048-1.048h2.933c.578 0 1.047.47 1.047 1.048v2.933c0 .578-.469 1.047-1.047 1.047zm0-8.799h-2.933a1.048 1.048 0 0 1-1.048-1.047v-2.933c0-.579.47-1.048 1.048-1.048h2.933c.578 0 1.047.469 1.047 1.048v2.933c0 .578-.469 1.047-1.047 1.047zm0-8.8h-2.933a1.048 1.048 0 0 1-1.048-1.047V7.248c0-.578.47-1.047 1.048-1.047h2.933c.578 0 1.047.469 1.047 1.047v2.933c0 .579-.469 1.048-1.047 1.048z" class="sc-Rmtcm cUjquv"/></svg>